<svg xmlns="http://www.w3.org/2000/svg" xmlns:xlink="http://www.w3.org/1999/xlink" width="772" height="134" fill="none"><style><![CDATA[.B{stroke:#665c00}.C{stroke-width:6}.D{mask:url(#A)}]]></style><g filter="url(#B)"><mask id="A" maskUnits="userSpaceOnUse" x="10.215" y="10.33" width="732" height="94" fill="#000"><path fill="#fff" d="M10.215 10.33h732v94h-732z"/><use xlink:href="#D"/><use xlink:href="#E"/><use xlink:href="#F"/><use xlink:href="#G"/><use xlink:href="#H"/><use xlink:href="#I"/><use xlink:href="#J"/><use xlink:href="#K"/><use xlink:href="#L"/></mask><use xlink:href="#D" fill="url(#C)"/><use xlink:href="#E" fill="url(#C)"/><use xlink:href="#F" fill="url(#C)"/><use xlink:href="#G" fill="url(#C)"/><use xlink:href="#H" fill="url(#C)"/><use xlink:href="#I" fill="url(#C)"/><use xlink:href="#J" fill="url(#C)"/><use xlink:href="#K" fill="url(#C)"/><use xlink:href="#L" fill="url(#C)"/><use xlink:href="#D" class="B C D"/><use xlink:href="#E" class="B C D"/><use xlink:href="#F" class="B C D"/><use xlink:href="#G" class="B C D"/><use xlink:href="#H" class="B C D"/><use xlink:href="#I" class="B C D"/><use xlink:href="#J" class="B C D"/><use xlink:href="#K" class="B C D"/><use xlink:href="#L" class="B C D"/></g><defs><filter id="B" x=".215" y=".33" width="771.091" height="133.23" filterUnits="userSpaceOnUse" color-interpolation-filters="sRGB"><feFlood flood-opacity="0" result="A"/><feColorMatrix in="SourceAlpha" values="0 0 0 0 0 0 0 0 0 0 0 0 0 0 0 0 0 0 127 0"/><feOffset dx="10" dy="10"/><feGaussianBlur stdDeviation="10"/><feColorMatrix values="0 0 0 0 0 0 0 0 0 0 0 0 0 0 0 0 0 0 0.3 0"/><feBlend in2="A"/><feBlend in="SourceGraphic"/></filter><linearGradient id="C" x1="401.748" y1="99.345" x2="401.748" y2="-0.053" gradientUnits="userSpaceOnUse"><stop stop-color="#e1b106"/><stop offset="1" stop-color="#ffe178"/></linearGradient><path id="D" d="M56.765 13.46c7.453 0 14.473 1.17 21.06 3.5l-4.42 20.67-1.7 1.04c-2.253-1.213-4.853-2.167-7.8-2.86-2.947-.78-5.677-1.17-8.2-1.17-5.287 0-9.1 1.56-11.44 4.68-2.34 3.033-3.5 8.147-3.5 15.34 0 8.407 1.343 14.56 4.03 18.46 2.687 3.813 6.9 5.72 12.6 5.72 2.427 0 5.113-.217 8.06-.65 3.033-.52 5.677-1.213 7.93-2.08l2.08 1.3-2.08 20.54c-5.2 1.647-11.223 2.47-18.07 2.47-13.953 0-24.483-3.64-31.6-10.92-7.02-7.28-10.53-17.897-10.53-31.85 0-14.04 3.77-24.917 11.3-32.63 7.627-7.713 18.373-11.57 32.24-11.57z"/><path id="E" d="M124.712 13.33c12.22 0 21.667 3.64 28.34 10.92 6.674 7.193 10 17.377 10 30.55 0 14.56-3.683 25.827-11.05 33.8-7.28 7.973-17.636 11.96-31.07 11.96-12.22 0-21.666-3.64-28.34-10.92-6.673-7.367-10-17.767-10-31.2 0-14.387 3.64-25.48 10.92-33.28 7.367-7.887 17.767-11.83 31.2-11.83zm-2.34 20.8c-3.38 0-5.936.607-7.67 1.82-1.733 1.127-3 3.163-3.77 6.1-.693 2.947-1.04 7.237-1.04 12.87 0 7.193.4 12.653 1.17 16.38s2.08 6.327 3.9 7.8c1.907 1.473 4.68 2.2 8.32 2.2 3.38 0 5.937-.563 7.67-1.7 1.734-1.213 2.947-3.293 3.64-6.24.78-3.033 1.17-7.367 1.17-13 0-7.107-.4-12.523-1.17-16.25s-2.123-6.327-4.03-7.8c-1.82-1.473-4.55-2.2-8.2-2.2z"/><path id="F" d="M218.968 99h-31.46l-23-84.1h26.4l2.34 13.9 9.75 46.93h1.56l11.96-45.37 2.47-15.47h25.48L218.968 99z"/><path id="G" d="M278.306 71.7l1.04 27.3h-26.13l1.3-24.7-1.3-59.4h26.52l-1.43 56.8z"/><path id="H" d="M336.306 14.37c12.393 0 21.883 3.38 28.47 10.14 6.673 6.673 10 16.337 10 29 0 14.993-3.857 26.52-11.57 34.58s-18.764 12.1-33.15 12.1c-9.014 0-19.587-.4-31.72-1.17l1.3-24.7-1.3-59.4 37.96-.52zm-1.3 66.43c4.073 0 7.15-1.603 9.23-4.8 2.166-3.293 3.25-8.667 3.25-16.12 0-6.327-.434-11.3-1.3-14.95s-2.254-6.24-4.16-7.8c-1.907-1.647-4.55-2.47-7.93-2.47-3.294 0-6.544.173-9.75.52l-.9 36.53.26 8.06c5.2.693 8.97 1.04 11.3 1.04z"/><path id="I" d="M449.38 13.46c9.36 0 17.464 1.3 24.3 3.9l-5.6 23h-2.08c-4.333-2.167-8.103-3.727-11.3-4.68-3.12-.953-6.543-1.43-10.27-1.43-3.986 0-7.063.65-9.23 1.95-2.08 1.3-3.596 3.597-4.55 6.9s-1.43 8.06-1.43 14.3c0 6.327.477 11.18 1.43 14.56.954 3.293 2.557 5.633 4.8 7.02 2.34 1.3 5.677 1.95 10 1.95 1.214 0 2.774-.173 4.68-.52v-4.16l-.4-14.17 23.8-1.7-.4 11.44v23c-10.053 3.813-20.063 5.72-30.03 5.72-13.606 0-23.876-3.597-30.8-10.8-6.933-7.28-10.4-17.637-10.4-31.07 0-14.733 4.074-25.957 12.22-33.67 8.234-7.713 19.977-11.57 35.23-11.57z"/><path id="J" d="M557.433 99h-26.4l-2.34-13.9-.13-.4-12.74-.26-10.66.52-2.2 14.04h-25.48l25.48-84.1h31.46l23 84.1zm-32.76-33.28l-5.72-27.56h-1.56l-7.28 27.56 7.28.13 7.28-.13z"/><path id="K" d="M661.947 99h-22.88l-.65-25.48-1.43-21.2h-1.56l-13.52 38.74h-19.63l-11.18-38.74h-1.56l-1.82 18.72-1.3 27.95h-21.7l8.2-84.1h30.03l2.47 11.96 7.4 30.55h1.56l8.2-29.64 3-12.87h29.64l6.76 84.1z"/><path id="L" d="M735.873 78.2l1.43 1.82-1.56 18.98h-59.28l1.3-24.7-1.3-59.4h60.32l1.43 1.82-1.7 18.98-20.67-.78h-13.4l-.26 11.83h12.87l13.52-.4 1.43 1.82-1.56 18.98-15.08-.4h-11.7l-.13 4.94.26 7.28h12.48l21.58-.78z"/></defs></svg>